{"title":"Vanishing On 7th Street-AC3-XviD-BRRip 2010 TBS","uid":6391538,"size":1372428390,"categoryP":"video","categoryS":"movies","magnet":"?xt=urn:btih:9aed6679e434f4ad40de6c66a46cbdddb09057fc&amp;dn=Vanishing+On+7th+Street-AC3-XviD-BRRip+2010+TBS&amp;tr=udp%3A%2F%2Ftracker.openbittorrent.com%3A80&amp;tr=udp%3A%2F%2Fopen.demonii.com%3A1337&amp;tr=udp%3A%2F%2Ftracker.coppersurfer.tk%3A6969&amp;tr=udp%3A%2F%2Fexodus.desync.com%3A6969","seeders":0,"leechers":0,"uploader":"FatFreddy30","files":-1,"time":1305373356,"description":"The population of Detroit has almost completely disappeared, but a few remain. As daylight disappears they realize that the Dark is coming for them...\n &lt;a href=&quot;\nhttp://www.imdb.com/title/tt1452628/&quot; rel=&quot;nofollow&quot; target=&quot;_NEW&quot;&gt;\nhttp://www.imdb.com/title/tt1452628/&lt;/a&gt;\n\nSubs: Dutch, English.\n\nDoor een mysterieuze en globale zonsverduistering verdwijnen ontelbare bevolkingsgroepen van de aardbodem waarbij alleen hun kleding en bezittingen achterblijven. Een handjevol overlevenden, een verslaggever (Hayden Christensen), een fysiotherapeut (Thandie Newton) en een filmoperateur(John Leguizamo), zitten gezamenlijk in een zwak verlichte bar op 7th Street. Ze moeten de handen inÃƒÂ©ÃƒÂ©n slaan in een poging de strijd aan te gaan tegen de apocalyptische verschrikkingen. Als de duisternis langzaam intreedt realiseren ze zich dat ze misschien wel de laatste mensen op aarde zijn...\n &lt;a href=&quot;\nhttp://www.moviemeter.nl/film/65458&quot; rel=&quot;nofollow&quot; target=&quot;_NEW&quot;&gt;\nhttp://www.moviemeter.nl/film/65458&lt;/a&gt;\n\nSubs: Engels, Nederlands.\n\nGeneral\nComplete name                    : Vanishing On 7th Street-AC3-XviD-BRRip 2010.avi\nFormat                           : AVI\nFormat/Info                      : Audio Video Interleave\nFile size                        : 1.28 GiB\nDuration                         : 1h 31mn\nOverall bit rate                 : 2 006 Kbps\nWriting application              : VirtualDubMod 1.5.4.1 (build 2178/release)\nWriting library                  : VirtualDubMod build 2178/release\nSource                           : Vanishing.On.7th.Street.2011.BluRay.720p.DTS.x264-CHD\n\nVideo\nID                               : 0\nFormat                           : MPEG-4 Visual\nFormat profile                   : Simple@L3\nFormat settings, BVOP            : No\nFormat settings, QPel            : No\nFormat settings, GMC             : No warppoints\nFormat settings, Matrix          : Default (H.263)\nCodec ID                         : XVID\nCodec ID/Hint                    : XviD\nDuration                         : 1h 31mn\nBit rate                         : 1 548 Kbps\nWidth                            : 720 pixels\nHeight                           : 304 pixels\nDisplay aspect ratio             : 2.35:1\nFrame rate                       : 23.976 fps\nResolution                       : 8 bits\nColorimetry                      : 4:2:0\nScan type                        : Progressive\nBits/(Pixel*Frame)               : 0.295\nStream size                      : 1 010 MiB (77%)\nWriting library                  : XviD 1.1.2 (UTC 2006-11-01)\n\nAudio\nID                               : 1\nFormat                           : AC-3\nFormat/Info                      : Audio Coding 3\nCodec ID                         : 2000\nDuration                         : 1h 31mn\nBit rate mode                    : Constant\nBit rate                         : 448 Kbps\nChannel(s)                       : 6 channels\nChannel positions                : Front: L C R, Surround: L R, LFE\nSampling rate                    : 48.0 KHz\nStream size                      : 292 MiB (22%)\nAlignment                        : Split accross interleaves\nInterleave, duration             : 42 ms (1.00 video frame)\nInterleave, preload duration     : 500 ms\n\nEnjoy..\n\nTBS.\n\nThanks to Simply ReleaseS Toppers","torrent":{"xt":"urn:btih:9aed6679e434f4ad40de6c66a46cbdddb09057fc","amp;dn":"Vanishing+On+7th+Street-AC3-XviD-BRRip+2010+TBS","amp;tr":["udp%3A%2F%2Ftracker.openbittorrent.com%3A80","udp%3A%2F%2Fopen.demonii.com%3A1337","udp%3A%2F%2Ftracker.coppersurfer.tk%3A6969","udp%3A%2F%2Fexodus.desync.com%3A6969"],"infoHash":"9aed6679e434f4ad40de6c66a46cbdddb09057fc","infoHashBuffer":{"type":"Buffer","data":[154,237,102,121,228,52,244,173,64,222,108,102,164,108,189,221,176,144,87,252]},"announce":[],"urlList":[]}}